<svg width="28" height="28" viewBox="0 0 28 28" fill="none" xmlns="http://www.w3.org/2000/svg">
<circle cx="14" cy="14" r="11.4545" fill="white"/>
<path d="M13.75 1.75C7.12321 1.75 1.75 7.12321 1.75 13.75C1.75 20.3768 7.12321 25.75 13.75 25.75C20.3768 25.75 25.75 20.3768 25.75 13.75C25.75 7.12321 20.3768 1.75 13.75 1.75ZM18.8929 14.3929C18.8929 14.5107 18.7964 14.6071 18.6786 14.6071H14.6071V18.6786C14.6071 18.7964 14.5107 18.8929 14.3929 18.8929H13.1071C12.9893 18.8929 12.8929 18.7964 12.8929 18.6786V14.6071H8.82143C8.70357 14.6071 8.60714 14.5107 8.60714 14.3929V13.1071C8.60714 12.9893 8.70357 12.8929 8.82143 12.8929H12.8929V8.82143C12.8929 8.70357 12.9893 8.60714 13.1071 8.60714H14.3929C14.5107 8.60714 14.6071 8.70357 14.6071 8.82143V12.8929H18.6786C18.7964 12.8929 18.8929 12.9893 18.8929 13.1071V14.3929Z" fill="black"/>
</svg>
