<svg width="290" height="410" viewBox="0 0 290 410" fill="none" xmlns="http://www.w3.org/2000/svg">
<path d="M3 9.99999C3 6.134 6.134 3 10 3H16C8.8203 3 3 8.8203 3 16V9.99999ZM3 400V394C3 401.18 8.8203 407 16 407H10C6.13401 407 3 403.866 3 400ZM280 407H274C281.18 407 287 401.18 287 394V400C287 403.866 283.866 407 280 407ZM287 10V16C287 8.8203 281.18 3 274 3H280C283.866 3 287 6.13401 287 10Z" fill="url(#paint0_linear)" stroke="url(#paint1_linear)" stroke-width="6"/>
<defs>
<linearGradient id="paint0_linear" x1="290" y1="1.92047e-05" x2="78" y2="344.5" gradientUnits="userSpaceOnUse">
<stop stop-color="#8E54E9"/>
<stop offset="0.9999" stop-color="#56B4D3"/>
</linearGradient>
<linearGradient id="paint1_linear" x1="290" y1="1.92047e-05" x2="78" y2="344.5" gradientUnits="userSpaceOnUse">
<stop stop-color="#8E54E9"/>
<stop offset="0.9999" stop-color="#56B4D3"/>
</linearGradient>
</defs>
</svg>
