<svg width="46" height="46" viewBox="0 0 46 46" fill="none" xmlns="http://www.w3.org/2000/svg">
<path d="M20.125 2.875C9.01133 2.875 0 11.8863 0 23C0 34.1137 9.01133 43.125 20.125 43.125C31.2387 43.125 40.25 34.1137 40.25 23C40.25 11.8863 31.2387 2.875 20.125 2.875ZM28.8174 16.4279L19.3568 29.5451C19.2246 29.7297 19.0503 29.8801 18.8483 29.9838C18.6464 30.0875 18.4226 30.1416 18.1956 30.1416C17.9686 30.1416 17.7448 30.0875 17.5429 29.9838C17.3409 29.8801 17.1666 29.7297 17.0344 29.5451L11.4326 21.7826C11.2619 21.5445 11.4326 21.2121 11.7246 21.2121H13.8314C14.2896 21.2121 14.7254 21.4322 14.9949 21.8096L18.1934 26.2479L25.2551 16.4549C25.5246 16.082 25.9559 15.8574 26.4186 15.8574H28.5254C28.8174 15.8574 28.9881 16.1898 28.8174 16.4279V16.4279Z" fill="white"/>
</svg>
