<svg width="28" height="28" viewBox="0 0 28 28" fill="none" xmlns="http://www.w3.org/2000/svg">
<circle cx="13.5" cy="14.5" r="10.5" fill="white"/>
<path d="M14 3C7.37321 3 2 8.37321 2 15C2 21.6268 7.37321 27 14 27C20.6268 27 26 21.6268 26 15C26 8.37321 20.6268 3 14 3ZM19.1429 15.6429C19.1429 15.7607 19.0464 15.8571 18.9286 15.8571H9.07143C8.95357 15.8571 8.85714 15.7607 8.85714 15.6429V14.3571C8.85714 14.2393 8.95357 14.1429 9.07143 14.1429H18.9286C19.0464 14.1429 19.1429 14.2393 19.1429 14.3571V15.6429Z" fill="black"/>
</svg>
