<svg width="110" height="100" viewBox="0 0 110 100" fill="none" xmlns="http://www.w3.org/2000/svg">
<g clip-path="url(#clip0)">
<path d="M109.581 45.3948C108.93 43.9065 106.651 43.5344 102 44.0925C100.465 39.953 97.3953 36.3716 94.0465 33.9995C93.8139 33.8134 93.5349 33.6739 93.2558 33.4879C93.4419 32.8367 93.6744 32.139 93.8139 31.4879C94.4186 29.1623 95.0233 26.4646 94.7442 23.6274C94.4186 20.0925 92.9767 17.4413 90.5116 15.7669C86.8372 13.3018 81.5814 13.4879 76.7442 14.6506C75.2093 11.4413 73.2558 8.69715 70.9767 6.37157C65.5814 0.976222 58.2791 -1.16331 51.0698 0.604129C46.4651 1.72041 42.5581 3.95297 39.7209 5.95297C38.7907 6.41808 35.1163 8.27855 32.2791 9.72041C30.093 10.8367 28.3721 11.8134 27.1163 12.5111C25.0698 13.6739 24 14.2785 24.3256 15.3948C24.7907 16.9762 26.5116 18.5111 28.6512 19.8134C26.6977 24.5111 25.7209 29.6274 25.4884 34.7902C16 38.5576 7.39535 44.046 5.11628 52.4646C2.93023 54.8367 0.651163 63.5809 0 66.3251L0.232558 67.3483C0.651163 67.8599 1.53488 68.046 2.60465 68.046C4.46512 68.046 6.97674 67.4413 9.30233 66.6972C10.7907 68.232 12.6047 69.6739 14.7907 71.1158C14.9767 71.2553 15.2093 71.3483 15.3953 71.4879C15.3488 71.5809 15.3023 71.6739 15.2558 71.7669C11.4884 78.7902 10.6977 84.6972 12.9302 89.2553C14.9767 93.4879 18.186 96.139 22.3721 97.1158C23.6279 97.4413 24.9302 97.5809 26.2326 97.5809C31.7674 97.5809 37.3953 95.0692 41.3023 92.4181C44.7442 96.139 49.3488 98.7437 54.3256 99.6739C55.7209 99.953 57.0698 100.046 58.4186 100.046C60.7907 100.046 63.0233 99.6274 65.0233 98.7902C65.4419 98.6041 65.8605 98.4181 66.2791 98.1855C66.7907 98.1855 67.3488 98.0925 68.0465 97.9065C71.7209 96.8832 80.9767 91.6274 80.3721 88.4646C80.1395 87.1623 78.6977 85.9995 77.0698 85.0227C78.6512 80.9297 79.7209 76.3251 80.3721 71.6274C85.8139 69.3483 90.8372 66.5576 95.1163 63.3948C96.4186 62.4181 97.907 61.1623 99.2093 59.5344C99.3488 59.9065 99.4884 60.139 99.4884 60.232L101.488 60.5111C101.488 60.4646 103.767 57.5344 105.86 54.3251C109.907 48.232 110.047 46.4181 109.581 45.3948ZM83.2093 16.1855C85.5349 16.1855 87.6744 16.6041 89.3023 17.7204C91.1628 18.9762 92.2791 21.0227 92.5116 23.8599C92.7442 26.2785 92.186 28.7902 91.6279 30.8832C91.4884 31.3483 91.3488 31.8134 91.2558 32.2785C87.8605 30.4646 84.186 29.3948 80.8837 28.6972C80.6046 26.7902 80.2326 24.8832 79.7674 23.0227C79.2558 20.8367 78.6047 18.7902 77.8139 16.8832C79.5814 16.4646 81.4419 16.1855 83.2093 16.1855ZM78.2791 69.9995C72.7907 72.232 66.8837 73.953 60.7907 75.0692C61.4884 74.4181 62.2326 73.7669 62.9767 73.1158C64.1395 72.0925 65.3023 71.0693 66.4651 69.9995C66.5581 69.9995 66.6512 70.046 66.7442 70.046C66.9302 70.0925 67.1163 70.0925 67.3023 70.0925C69.9535 70.0925 75.3023 67.953 76.5116 66.6972C77.7674 65.4413 76.6512 63.0227 75.5814 61.3483C76.8372 60.046 78.093 58.7437 79.2558 57.3948C79.2558 57.7669 79.2093 58.0925 79.2093 58.4646C79.1163 61.2088 78.9302 65.3483 78.2791 69.9995ZM74.2326 59.3948C72.8372 57.6739 70.9302 55.9995 69.3488 56.8832L68.8837 57.3948C65.814 64.046 65.1628 66.7902 65.1163 68.046C63.907 69.1158 62.6977 70.232 61.4884 71.3018C59.8605 72.7437 58.2791 74.232 56.7442 75.6739C52.6046 76.2785 48.3721 76.5576 44.2326 76.5576C44.2326 76.5576 44.2326 76.5576 44.186 76.5576C41.3488 76.5576 38.6047 76.3716 35.9535 75.9995C33.5349 70.046 31.5349 63.5344 30 56.6506C29.907 56.232 29.814 55.8134 29.7209 55.3948C31.9535 52.8832 34.2791 50.4646 36.6512 48.0925C39.5349 49.6739 42.9302 50.2786 43.5814 50.3716L44.8837 49.5809C46.6512 43.9065 47.3953 40.0925 47.1628 38.1855C47.5814 37.7669 48.0465 37.3483 48.4651 36.9762L50.7907 34.8367C52.6046 33.1623 54.4651 31.4413 56.3721 29.7669C62.5581 29.2553 68.7907 29.3483 75.0233 30.0925C76.186 30.232 77.4884 30.4181 78.8372 30.6506C79.8605 38.4646 79.7674 46.4646 79.4884 53.6274C77.7674 55.6274 76.0465 57.5344 74.2326 59.3948ZM41.7209 89.1623C39.8605 86.5576 38.7442 83.5344 37.5814 80.3251C37.3488 79.7204 37.1628 79.1158 36.9302 78.5111C39.3023 78.7902 41.7209 78.9297 44.2326 78.9297C44.2326 78.9297 44.2326 78.9297 44.2791 78.9297C47.4884 78.9297 50.6977 78.7437 53.907 78.4181C50 82.0925 46 85.8599 41.7209 89.1623ZM27.7209 36.3716C32.9302 34.4181 37.814 33.1623 40.6512 32.4181C44.5581 31.4413 48.4651 30.6972 52.3721 30.1855C51.3023 31.1623 50.2326 32.1855 49.1628 33.1623L46.8372 35.3018C46.3721 35.7204 45.9535 36.139 45.4884 36.5576C44.093 36.4646 40.8837 37.3948 33.0698 41.953L32.5116 43.0692C32.6512 44.6041 33.5349 45.8599 34.6977 46.8367C32.7907 48.7437 30.9767 50.6506 29.1628 52.6041C28.186 47.4413 27.5814 41.8599 27.7209 36.3716ZM27.814 57.6274C29.2558 63.9995 31.1163 70.046 33.2558 75.6274C27.907 74.6507 22.9302 72.9297 18.5116 70.5576C21.2093 65.9995 24.3721 61.7204 27.814 57.6274ZM77.4884 23.5809C77.8605 25.1158 78.186 26.6972 78.4186 28.232C77.3023 28.046 76.2326 27.9065 75.2093 27.7669C69.907 27.1158 64.5581 26.9297 59.2558 27.2088C62.6046 24.4181 66.093 21.8599 69.8605 19.7669C71.4419 18.8832 73.3953 18.0925 75.4884 17.4413C76.2791 19.3483 76.9302 21.3948 77.4884 23.5809ZM81.1628 31.1623C84.2326 31.8599 87.4884 32.8832 90.4651 34.5576C88.4186 40.5576 85.3953 45.8134 81.8139 50.5576C82.0465 44.3716 82 37.7204 81.1628 31.1623ZM30.6977 20.8832C33.5814 22.3251 36.6512 23.2088 37.9535 23.2088C38 23.2088 38.0465 23.2088 38.0465 23.2088C39.2558 23.1623 39.4884 22.3251 39.5349 22.0925C39.6744 21.3018 40.4651 15.3018 41.1628 9.72041C41.3023 8.79018 41.3953 7.99948 41.4419 7.53436C44.6977 5.3018 48.2326 3.62738 51.6279 2.79018C58.1395 1.20878 64.4651 3.06925 69.3953 7.99948C71.3953 9.99948 73.1163 12.4181 74.5116 15.2553C72.3256 15.953 70.3256 16.8367 68.6977 17.7204C63.8605 20.4646 59.4884 23.8599 55.3488 27.5344C50.2326 27.9995 45.1163 28.8832 40.0465 30.1855C36.186 31.1623 31.9535 32.3716 27.8605 33.8599C28.186 29.3483 29.0698 24.9297 30.6977 20.8832ZM16.0465 69.0693C14.3721 67.9995 12.9302 66.8832 11.7209 65.7669C12.9302 65.3018 13.907 64.8367 14.5581 64.4646C15.1163 64.139 16.8372 63.1158 16.3256 61.6274C15.7209 59.9995 10.9767 52.9762 7.76744 51.8134C10.2791 45.1158 17.8605 40.4646 25.3953 37.3018C25.3488 43.3018 26.093 49.3018 27.2093 54.7902C23.2558 59.3483 19.5814 64.139 16.5581 69.3948C16.3721 69.3018 16.186 69.2088 16.0465 69.0693ZM22.9302 94.7902C19.4419 93.953 16.7907 91.7204 15.0233 88.139C13.1163 84.2785 13.907 79.1158 17.3023 72.7902C17.3488 72.7437 17.3953 72.6507 17.3953 72.6041C22.4186 75.3483 28.1395 77.2088 34.2791 78.1855C34.6512 79.1623 35.0233 80.139 35.3953 81.1158C36.5581 84.3251 37.7674 87.6274 39.8605 90.5111C35.4419 93.4879 28.7442 96.1855 22.9302 94.7902ZM74.9302 83.953C74.1395 83.6274 73.3953 83.3483 72.7907 83.1623C69.6279 82.1855 68.6512 82.6972 68.1861 83.1623C67.0233 84.3251 64.9767 91.7669 63.8605 96.0925L63.907 96.7437C61.3023 97.7669 58.1395 97.9995 54.7907 97.3948C50.3721 96.5576 46.2791 94.3251 43.2093 91.0227C47.7674 87.4879 52 83.5344 56.0465 79.6274C56.6046 79.0692 57.2093 78.5111 57.7674 77.9995C64.7442 76.9762 71.5814 75.1623 77.907 72.6972C77.3023 76.4181 76.3721 80.3251 74.9302 83.953ZM93.7674 61.5344C89.9535 64.3716 85.5349 66.8367 80.7442 68.9762C81.1628 65.4879 81.3953 61.953 81.5349 58.6041C81.5814 57.3018 81.6744 55.953 81.7209 54.5576C86.186 49.0692 90 42.9762 92.5116 35.8134C92.5581 35.8599 92.6512 35.9065 92.6977 35.953C95.5814 37.9995 98.2326 41.0227 99.6279 44.4646C97.3023 44.8367 95.3953 45.3018 95.3023 45.3018L94.4651 46.7437C95.1163 49.1623 96.9767 53.9065 98.2326 57.0692C96.8837 58.9297 95.2093 60.4646 93.7674 61.5344Z" fill="white"/>
</g>
<defs>
<clipPath id="clip0">
<rect width="109.767" height="100" fill="white"/>
</clipPath>
</defs>
</svg>
