<svg width="203" height="65" viewBox="0 0 203 65" fill="none" xmlns="http://www.w3.org/2000/svg">
<g clip-path="url(#clip0)">
<path d="M58.0843 0.409424V5.13576H50.1965V27.2339H45.4126V5.13673H37.4878V0.409424H58.0843Z" fill="white"/>
<path d="M79.1185 15.679V27.2329H74.5172V16.6076C74.5172 13.8606 73.1292 12.2042 70.4635 12.2042C68.1628 12.2042 66.154 14.1835 66.154 17.4963V27.2329H61.5527V0.405457H66.154V9.49815C67.1399 8.32657 69.0755 7.51885 71.4132 7.51885C75.9413 7.51788 79.1185 10.6288 79.1185 15.679Z" fill="white"/>
<path d="M100.993 21.4166C99.6423 25.2952 96.2094 27.7593 92.4476 27.7593C87.043 27.7593 83.0625 23.4369 83.0625 17.619C83.0625 11.882 86.8605 7.51953 92.2651 7.51953C97.6336 7.51953 101.285 11.883 101.285 17.539C101.285 18.1857 101.321 18.6705 101.212 19.3163H87.8463C88.3207 21.6195 90.147 23.074 92.4476 23.074C93.9088 23.074 95.1865 22.5892 96.026 21.4176H100.993V21.4166ZM96.392 15.5177C96.1001 13.2555 94.4202 11.882 92.2651 11.882C90.1831 11.882 88.2484 13.2955 87.9557 15.5177H96.392Z" fill="white"/>
<path d="M63.2805 63.82H58.2039L55.8301 57.8811H44.7651L42.3912 63.82H37.498L48.0516 36.9945H52.7261L63.2805 63.82ZM46.6645 53.1547H53.9315L50.3161 44.025L46.6645 53.1547Z" fill="white"/>
<path d="M70.5106 44.304V46.6101C71.2777 45.3175 72.7415 44.304 75.0757 44.304H77.1938V49.1815H75.0395C72.082 49.1815 70.5114 51.4174 70.5114 54.4883V63.821H65.9102V44.304H70.5106Z" fill="white"/>
<path d="M92.6054 57.5172H97.2799C96.0013 61.7187 92.6416 64.3448 88.7343 64.3448C83.4751 64.3448 79.4946 60.0223 79.4946 54.2044C79.4946 48.3864 83.4751 44.1049 88.7343 44.1049C92.6416 44.1049 96.0013 46.731 97.2799 50.9325H92.6054C91.765 49.438 90.3048 48.7913 88.7343 48.7913C85.9592 48.7913 84.0959 50.9725 84.0959 54.2044C84.0959 57.4362 85.9583 59.6584 88.7343 59.6584C90.3048 59.6584 91.7659 59.0126 92.6054 57.5172Z" fill="white"/>
<path d="M118.971 52.266V63.8199H114.37V53.1946C114.37 50.4476 112.982 48.7912 110.316 48.7912C108.015 48.7912 106.007 50.7705 106.007 54.0833V63.8199H101.405V36.7925H106.007V46.0842C106.992 44.9126 108.928 44.1049 111.266 44.1049C115.794 44.1049 118.971 47.2158 118.971 52.266Z" fill="white"/>
<path d="M123.756 35.9849H128.795V41.5199H123.756V35.9849ZM128.577 44.304V63.82H123.975V44.304H128.577Z" fill="white"/>
<path d="M140.042 40.3073V44.303H145.301V49.0732H140.042V56.9914C140.042 58.4059 140.627 59.3745 142.051 59.3745H145.301V63.8189H142.015C137.669 63.8189 135.442 61.3548 135.442 57.7991V49.0732H132.265V44.303H135.442V40.3073H140.042Z" fill="white"/>
<path d="M165.935 58.002C164.584 61.8806 161.151 64.3448 157.39 64.3448C151.985 64.3448 148.004 60.0223 148.004 54.2044C148.004 48.4674 151.802 44.1049 157.207 44.1049C162.575 44.1049 166.227 48.4684 166.227 54.1244C166.227 54.7711 166.264 55.256 166.154 55.9017H152.788C153.263 58.2049 155.089 59.6584 157.39 59.6584C158.851 59.6584 160.128 59.1736 160.968 58.002H165.935ZM161.334 52.1041C161.042 49.8419 159.362 48.4684 157.207 48.4684C155.125 48.4684 153.19 49.8829 152.898 52.1041H161.334Z" fill="white"/>
<path d="M182.623 57.5172H187.298C186.019 61.7187 182.66 64.3448 178.752 64.3448C173.493 64.3448 169.513 60.0223 169.513 54.2044C169.513 48.3864 173.493 44.1049 178.752 44.1049C182.66 44.1049 186.019 46.731 187.298 50.9325H182.623C181.783 49.438 180.323 48.7913 178.752 48.7913C175.977 48.7913 174.114 50.9725 174.114 54.2044C174.114 57.4362 175.976 59.6584 178.752 59.6584C180.323 59.6584 181.783 59.0126 182.623 57.5172Z" fill="white"/>
<path d="M197.561 40.3073V44.303H202.82V49.0732H197.561V56.9914C197.561 58.4059 198.145 59.3745 199.57 59.3745H202.82V63.8189H199.533C195.188 63.8189 192.96 61.3548 192.96 57.7991V49.0732H189.783V44.303H192.96V40.3073H197.561Z" fill="white"/>
<path d="M30.8634 32.0487L15.4317 0.344727L0 32.0487L15.4317 63.7595L30.8634 32.0487Z" fill="white"/>
</g>
<defs>
<clipPath id="clip0">
<rect y="0.344727" width="203" height="64" fill="white"/>
</clipPath>
</defs>
</svg>
