<svg width="27" height="27" viewBox="0 0 27 27" fill="none" xmlns="http://www.w3.org/2000/svg">
<circle cx="13.5" cy="13.5" r="11.0455" fill="white"/>
<path d="M13.5 1.6875C6.97676 1.6875 1.6875 6.97676 1.6875 13.5C1.6875 20.0232 6.97676 25.3125 13.5 25.3125C20.0232 25.3125 25.3125 20.0232 25.3125 13.5C25.3125 6.97676 20.0232 1.6875 13.5 1.6875ZM18.5625 14.1328C18.5625 14.2488 18.4676 14.3438 18.3516 14.3438H14.3438V18.3516C14.3438 18.4676 14.2488 18.5625 14.1328 18.5625H12.8672C12.7512 18.5625 12.6562 18.4676 12.6562 18.3516V14.3438H8.64844C8.53242 14.3438 8.4375 14.2488 8.4375 14.1328V12.8672C8.4375 12.7512 8.53242 12.6562 8.64844 12.6562H12.6562V8.64844C12.6562 8.53242 12.7512 8.4375 12.8672 8.4375H14.1328C14.2488 8.4375 14.3438 8.53242 14.3438 8.64844V12.6562H18.3516C18.4676 12.6562 18.5625 12.7512 18.5625 12.8672V14.1328Z" fill="black"/>
</svg>
