<svg width="410" height="640" viewBox="0 0 410 640" fill="none" xmlns="http://www.w3.org/2000/svg">
<path d="M409.065 41.8806L408.456 39.6036L379.466 35.5781L383.608 25.3316L390.997 27.446L392.094 23.5832L385.07 21.5502L387.14 16.4269L385.516 13.7027L365.459 11.5883L363.632 14.7192L376.3 32.6912L375.366 35.0089L327.374 28.2999L329.851 19.4358L344.467 21.0623L344.914 17.0775L330.947 15.5324L331.881 12.2389L346.335 14.2313L346.863 10.2465L332.936 8.33545L334.967 1.05718L331.109 0L328.957 7.80686L321.852 6.831L321.324 10.8158L327.902 11.7103L326.968 15.1258L319.457 14.3126L319.01 18.2973L325.872 19.0699L323.436 27.8119L302.566 24.925L301.186 25.2097L265.943 46.5159L266.187 46.9225L219.088 181.51C215.069 183.502 211.13 186.023 207.273 189.154C199.396 195.537 191.804 204.28 184.779 215.136C173.736 232.173 163.91 254.861 158.51 275.842C150.511 306.826 154.206 334.8 158.144 364.442C159.363 373.713 160.662 383.349 161.555 393.108C161.839 396.402 162.042 399.858 160.784 402.663C159.728 405.022 158.347 406.241 156.602 406.404C152.947 406.77 147.669 402.623 144.665 398.435C136.747 387.375 130.088 367.858 123.633 348.991C118.882 335.004 114.375 321.789 109.463 312.152C105.687 304.752 99.6775 295.197 91.151 297.515C78.2801 301.052 79.214 324.351 79.5794 333.133L79.62 333.825C80.1072 346.429 83.5584 360.01 90.1766 375.258C93.9119 383.919 98.297 392.457 102.56 400.671C105.078 405.591 107.717 410.633 110.153 415.675C111.005 417.423 113.685 423.36 115.796 429.499C118.842 438.363 118.273 440.966 118.07 441.494C117.664 441.454 116.284 441.169 113.117 438.689C95.2924 424.823 86.7254 405.835 77.6305 385.748C72.2304 373.754 66.6273 361.352 58.8723 350.211C57.0859 347.649 55.0151 345.088 51.97 343.99C46.4075 341.997 40.5202 346.023 38.2465 350.902C29.6794 369.24 45.6361 394.897 55.1776 410.226C55.6242 410.958 56.0708 411.69 56.5174 412.381C67.3988 429.947 77.2651 443.405 87.578 454.709C88.4713 455.685 89.4863 456.742 90.5826 457.881C96.6729 464.142 104.996 472.762 103.332 480.163C102.479 483.944 100.733 484.391 100.124 484.554C93.8307 486.18 80.1884 474.429 75.6004 469.225C62.2423 454.262 49.6151 435.558 40.1142 416.569C39.1803 414.699 38.2059 412.584 37.1908 410.348C31.6689 398.15 24.7666 382.983 10.2716 382.577C5.88661 382.455 3.53169 384.407 2.31362 386.074C-2.51803 392.701 1.29857 406.526 6.17082 420.432C6.57684 421.611 6.94226 422.628 7.18587 423.36C12.3423 439.583 21.3966 455.522 34.0645 470.689C49.2903 488.945 68.089 503.705 86.2382 518.018C90.745 521.555 95.2924 525.133 99.8399 528.793C82.0155 544.935 79.5388 568.396 79.4576 569.454L81.0005 571.69C81.5283 571.853 88.0247 573.52 97.1601 573.52C107.067 573.52 120.1 571.568 132.2 563.598C133.174 562.948 134.108 562.257 135.042 561.525C135.489 562.053 135.976 562.582 136.422 563.111C156.399 586.45 166.752 612.92 165.575 637.56L165.493 639.675L169.716 639.878L169.797 637.764C171.015 612.025 160.337 584.498 139.63 560.346C139.143 559.776 138.655 559.248 138.168 558.679C144.908 551.969 149.983 542.292 153.029 530.257C155.911 518.79 155.952 509.357 155.952 508.95L153.638 506.836C152.46 506.958 124.77 509.682 103.697 525.54C103.494 525.703 103.291 525.825 103.088 525.987C98.3376 522.124 93.5465 518.384 88.7961 514.643C70.8094 500.493 52.173 485.814 37.2314 467.924C24.8884 453.164 16.1183 437.713 11.1243 422.018C10.8807 421.245 10.5152 420.188 10.0686 418.968C7.7137 412.219 1.46098 394.247 5.64299 388.473C6.21142 387.659 7.30768 386.643 10.0686 386.684C21.8838 387.009 28.1772 400.834 33.2524 411.975C34.2675 414.252 35.2419 416.366 36.2164 418.318C45.8797 437.591 58.7099 456.62 72.3116 471.868C72.474 472.071 90.4202 491.222 101.058 488.457C103.291 487.888 106.174 486.099 107.311 480.895C109.463 471.258 100.246 461.703 93.5059 454.75C92.4503 453.652 91.4352 452.595 90.5826 451.659C80.4321 440.518 70.7281 427.304 59.9686 409.942C59.522 409.25 59.0754 408.518 58.6287 407.787C49.5339 393.189 34.3487 368.752 41.9413 352.488C43.4435 349.276 47.2195 346.633 50.4271 347.771C52.4572 348.503 54.0001 350.536 55.2994 352.407C62.8107 363.222 68.3326 375.461 73.6921 387.253C82.584 406.933 91.8006 427.304 110.437 441.82C113.442 444.137 117.745 446.983 120.628 444.625C123.145 442.592 122.942 437.632 119.897 428.523C117.705 421.977 114.822 415.553 113.888 413.601C111.411 408.518 108.813 403.436 106.255 398.516C102.032 390.343 97.688 381.926 93.9932 373.388C87.578 358.587 84.2487 345.535 83.7614 333.459L83.7208 332.767C83.4366 325.652 82.5434 304.02 92.2067 301.377C96.3887 300.239 100.774 304.305 105.646 313.86C110.437 323.212 114.863 336.305 119.613 350.13C126.15 369.281 132.89 389.123 141.213 400.712C143.812 404.33 150.471 411.039 156.967 410.389C159.241 410.185 162.448 408.925 164.6 404.208C166.305 400.468 166.102 396.402 165.737 392.539C164.844 382.699 163.545 373.062 162.326 363.71C158.469 334.516 154.815 306.948 162.611 276.737C164.6 269.052 172.315 241.972 188.352 217.291C197.65 202.978 212.308 185.82 231.147 181.51C232.609 181.184 234.111 180.9 235.613 180.737C235.857 180.696 236.101 180.696 236.385 180.656C242.637 180.086 255.508 182.079 259.853 186.836C260.259 187.283 260.624 187.771 260.868 188.3C262.005 190.658 260.827 193.667 257.376 197.205C256.808 197.774 256.036 198.302 255.143 198.79C253.153 199.888 250.474 200.783 248.038 201.596C245.561 202.45 243.206 203.222 241.338 204.239C239.795 205.052 238.252 205.947 236.75 206.882C235.126 207.858 233.543 208.874 232 209.972C229.482 211.68 227.046 213.51 224.651 215.461C221.768 217.82 219.007 220.341 216.368 222.943C214.054 225.26 211.78 227.7 209.669 230.221C205.243 235.507 201.223 241.199 197.65 247.339C183.967 270.882 182.425 298.612 182.018 325.001C181.815 336.834 182.709 351.919 191.073 363.588C196.148 370.663 202.482 375.583 209.912 378.226C217.261 380.869 225.3 381.154 233.827 379.039C250.433 374.933 265.456 363.06 274.957 346.47C284.255 330.246 287.503 311.339 283.808 294.546C282.549 288.854 280.6 283.324 278.448 277.957L303.297 261.449C307.885 278.404 310.159 296.051 310.037 313.942C309.793 349.072 299.805 383.797 281.169 414.414C279.098 417.83 276.987 421.245 274.957 424.579C267.811 436.168 260.787 447.553 254.615 459.263C253.965 458.816 253.275 458.328 252.544 457.881C241.622 450.806 228.792 449.179 215.556 453.123C205.608 456.091 198.99 461.093 198.706 461.296L197.894 463.329C198.056 464.224 201.832 485.733 229.361 496.874C232.365 498.094 235.248 499.029 238.049 499.761C235.167 510.455 233.34 521.718 232.974 533.875C232.162 560.752 236.466 587.629 240.567 613.611L240.892 615.685L245.074 615.034L244.749 612.961C240.648 587.182 236.425 560.508 237.197 533.997C237.562 522.043 239.308 511.105 242.11 500.696C246.413 501.55 250.392 501.875 254.047 501.875C267.892 501.875 276.743 497.077 277.271 496.752L278.367 494.963C278.408 494.191 278.611 477.56 257.985 461.703C264.075 450.155 271.14 438.729 278.489 426.775C280.519 423.441 282.63 420.025 284.742 416.61C303.784 385.342 313.975 349.886 314.26 313.982C314.381 295.4 311.986 277.062 307.154 259.497C307.114 259.334 307.073 259.172 307.032 259.009L320.106 250.307L320.878 249.372L409.999 42.2872L409.065 41.8806ZM83.802 568.112C84.4923 564.005 86.7254 553.637 93.1405 543.431L117.908 565.997C103.047 571.121 88.7555 569.088 83.802 568.112ZM151.567 511.512C151.283 516.351 150.186 527.817 145.801 538.958L121.44 520.213C134.149 514.48 146.492 512.244 151.567 511.512ZM206.908 474.104C204.106 469.713 202.847 465.931 202.32 464.061C204.512 462.597 209.831 459.385 216.855 457.311C220.753 456.173 224.529 455.522 228.224 455.4L216.246 484.513C211.861 480.935 208.897 477.194 206.908 474.104ZM271.343 484.229C273.333 488.579 273.942 492.036 274.104 493.784C271.262 495.085 263.304 498.094 252.138 497.728L260.949 469.997C266.43 475.324 269.557 480.407 271.343 484.229ZM302.688 29.1537L322.258 31.878L319.741 40.864L323.598 41.9212L326.237 32.4066L373.742 39.0343L371.63 44.2795L375.325 45.784L377.802 39.6036L402.935 43.1004L378.492 62.2922L274.794 46.1093L302.688 29.1537ZM201.264 249.657C204.065 244.818 207.192 240.264 210.562 235.954L237.562 242.826L239.917 241.647L251.651 212.615L250.23 209.891L242.962 208.346C243.084 208.264 243.206 208.224 243.328 208.142C244.871 207.329 247.063 206.557 249.377 205.784C253.559 204.361 257.904 202.897 260.421 200.295C265.212 195.334 266.633 190.74 264.684 186.633C264.603 186.511 264.563 186.389 264.481 186.226L271.343 169.271L269.922 166.546L240.283 160.285L237.968 161.586L232.731 176.996C229.929 177.484 227.168 178.216 224.407 179.192L269.76 49.5248L375.934 66.1144L296.882 229.164L294.486 234.125L275.972 272.305L274.632 275.029L272.358 274.623L195.62 261.286C197.244 257.301 199.112 253.398 201.264 249.657ZM279.707 295.644C287.137 329.352 264.766 367.248 232.812 375.095C217.261 378.917 203.659 373.997 194.483 361.271C186.81 350.618 186.038 336.427 186.201 325.245C186.525 305.159 187.5 284.259 194.118 265.311L274.307 279.258C276.54 284.585 278.489 290.074 279.707 295.644ZM317.223 247.299L305.814 254.861L302.12 257.342L281.128 271.288L296.598 239.37L299.115 234.165L380.725 65.8704L402.61 48.7116L317.223 247.299Z" fill="white"/>
<path d="M294.446 105.515L296.801 104.335L308.535 75.3037L307.114 72.5794L277.475 66.3177L275.16 67.6188L265.538 95.9594L266.918 98.5617L294.446 105.515Z" fill="white"/>
<path d="M308.9 108.727L336.429 115.72L338.784 114.541L350.518 85.5095L349.097 82.7853L319.457 76.5235L317.143 77.8246L307.52 106.084L308.9 108.727Z" fill="white"/>
<path d="M277.109 153.21L288.843 124.178L287.422 121.454L257.783 115.192L255.468 116.493L245.846 144.752L247.226 147.355L274.754 154.348L277.109 153.21Z" fill="white"/>
<path d="M297.735 124.91L295.421 126.211L285.839 154.47L287.219 157.072L314.748 164.066L317.103 162.887L328.837 133.855L327.415 131.131L297.735 124.91Z" fill="white"/>
<path d="M297.167 209.159L299.521 207.98L311.255 178.948L309.834 176.224L280.195 169.962L277.881 171.263L268.258 199.522L269.638 202.125L297.167 209.159Z" fill="white"/>
<path d="M279.017 251.649L290.751 222.618L289.33 219.893L259.691 213.632L257.377 214.933L247.754 243.192L249.134 245.794L276.663 252.788L279.017 251.649Z" fill="white"/>
</svg>
