<svg width="437" height="345" viewBox="0 0 437 345" fill="none" xmlns="http://www.w3.org/2000/svg">
<path d="M432.874 210.361C428.261 170.939 418.266 141.053 402.377 118.905C385.976 96.116 336.516 80.5955 300.425 69.2651C284.536 64.2626 270.826 59.987 263.65 56.2672C241.526 44.8085 251.435 1.45371 251.52 1.02615L247.206 0C247.078 0.470318 244.473 11.758 244.814 24.7559C245.241 42.4569 251.05 54.728 261.6 60.2008C264.846 61.8683 269.245 63.6213 274.499 65.5025C266.256 79.7404 243.234 87.5647 230.378 90.0019C202.103 95.3464 169.727 89.2322 148.671 74.7379C152.13 71.5739 154.906 68.1962 156.957 64.6047C162.552 54.728 165.712 43.6969 168.232 34.1195C171.436 21.8912 172.973 10.8601 172.973 0.513075H168.531C168.531 10.4753 166.994 21.1216 163.876 33.0078C161.441 42.2859 158.366 53.0177 153.027 62.4241C149.098 69.3506 142.136 75.3792 132.312 80.4672C128.383 82.4768 124.069 84.3153 118.73 86.1965C111.17 88.8902 103.268 91.1563 94.8967 93.5079C67.9884 101.204 40.1831 109.157 22.8849 132.159C10.2423 149.005 2.72504 186.075 0.589461 242.385C-0.990868 284.072 1.102 321.399 1.14471 321.741L5.58672 321.484C5.54401 320.8 3.79283 289.032 4.81791 251.278L89.0452 256.495C88.2337 268.466 87.6784 278.899 87.8065 282.747C85.6283 285.184 83.7917 287.878 82.4676 290.785C77.812 300.961 78.6236 314.258 84.6032 325.46C89.3442 334.311 96.5197 340.682 104.934 343.418C108.095 344.444 111.469 344.957 114.928 344.957C121.549 344.957 128.596 343.119 135.515 339.484C143.502 335.337 149.61 329.693 153.241 323.237C156.06 318.192 157.469 312.377 157.256 306.391C157.127 301.517 155.633 297.754 154.052 293.778C153.881 293.308 153.668 292.795 153.497 292.324C156.871 290.272 160.673 288.519 164.303 286.766C166.31 285.825 168.403 284.842 170.411 283.816L187.581 275.094C189.076 277.488 191.809 282.02 192.877 283.773C193.39 284.585 193.731 285.184 193.817 285.355C194.03 285.697 194.201 286.039 194.372 286.296C195.482 288.177 196.977 290.785 201.419 288.733C201.505 288.69 201.718 288.605 202.06 288.476C202.957 288.091 204.452 287.45 205.733 286.852C208.082 285.783 209.748 285.013 209.236 283.003L204.11 268.595C204.238 268.509 204.366 268.424 204.495 268.338C205.392 267.782 206.246 267.269 207.143 266.756C207.399 267.397 207.613 268.124 207.826 268.808C208.082 269.578 208.296 270.39 208.595 271.117C209.492 273.341 210.474 275.607 211.499 277.744C211.884 278.514 212.439 279.711 213.507 280.566C215.685 282.277 219.572 281.849 222.433 280.695C225.381 279.497 227.217 277.702 227.516 275.564C227.644 274.751 227.772 273.725 222.391 259.616C219.828 252.86 217.18 246.276 217.137 246.233L214.233 244.993C214.233 244.993 144.57 273.939 139.103 276.205C138.121 276.034 135.558 274.923 134.405 274.452C133.166 273.939 132.44 273.597 131.928 273.469C119.2 269.963 108.693 270.134 99.7658 274.025C97.075 275.179 94.555 276.718 92.2913 278.471C92.6757 265.815 95.2384 231.61 97.1604 208.18L92.7184 207.795C92.5048 210.19 91.8214 218.741 91.0099 229.302C75.3775 230.157 17.9731 222.931 6.22739 221.434C8.70466 185.947 14.3426 150.801 26.5154 134.639C42.9167 112.834 69.9958 105.095 96.178 97.6125C104.208 95.3036 112.537 92.952 120.267 90.2156C121.079 89.9163 121.89 89.617 122.659 89.3605C125.008 91.7976 130.732 96.9284 141.538 101.674C152.6 106.549 171.051 111.808 199.07 111.808C204.324 111.808 209.876 111.637 215.813 111.209C248.359 108.986 287.099 95.3891 299.784 73.5835C335.235 84.7001 383.371 99.9213 398.79 121.385C415.917 145.2 424.288 176.797 428.261 209.206L427.663 208.137C422.025 211.258 377.946 217.715 348.305 221.477C347.322 212.584 346.553 205.999 346.297 203.477L341.898 203.99C347.365 251.834 355.096 325.076 353.9 330.677L358.256 331.617C359.367 326.487 354.797 281.122 350.995 245.592C364.236 243.924 418.907 237.04 430.524 233.363C432.147 259.103 431.635 284.243 431.25 305.194C431.08 313.788 430.909 321.954 430.909 329.137H435.351C435.351 321.954 435.522 313.873 435.692 305.279C436.12 277.958 436.803 243.753 432.874 210.361ZM101.474 278.258C109.419 274.794 118.986 274.709 130.689 277.915C130.945 278.001 131.885 278.386 132.611 278.685C136.882 280.524 138.932 281.25 140.427 280.609C141.922 280.01 151.276 276.12 213.806 250.124C218.205 261.198 222.604 272.87 223.031 275.222C222.861 275.521 222.177 276.205 220.682 276.761C218.504 277.616 216.625 277.531 216.198 277.231C215.941 277.018 215.642 276.419 215.429 275.991C214.446 273.896 213.507 271.759 212.653 269.621C212.439 269.065 212.225 268.381 212.012 267.654C211.499 265.901 210.859 263.934 209.705 262.523L207.057 261.925C205.306 262.737 203.683 263.72 202.103 264.704C201.462 265.089 200.821 265.473 200.223 265.858L199.241 268.509L204.324 282.704C203.512 283.089 202.231 283.645 200.266 284.5C199.882 284.671 199.626 284.756 199.54 284.799C199.156 284.97 198.899 285.056 198.729 285.098C198.558 284.842 198.344 284.5 198.173 284.158C198.002 283.816 197.789 283.474 197.533 283.089C197.404 282.918 197.063 282.362 196.593 281.55C195.611 279.882 194.03 277.274 192.664 275.051C191.895 273.811 191.339 272.87 190.912 272.186C190.144 270.989 189.076 269.321 187.239 270.262L168.318 279.882C166.396 280.866 164.346 281.806 162.338 282.747C157.982 284.799 153.454 286.894 149.439 289.545L148.585 292.153C149.012 293.265 149.439 294.334 149.824 295.403C151.319 299.165 152.6 302.458 152.728 306.519C152.899 311.736 151.66 316.738 149.269 321.056C146.065 326.743 140.598 331.746 133.38 335.508C127.87 338.373 117.021 342.648 106.258 339.142C98.9543 336.748 92.6757 331.147 88.4899 323.323C83.151 313.318 82.3822 301.56 86.4398 292.581C89.3442 286.424 94.8112 281.165 101.474 278.258Z" fill="white"/>
<path d="M309.651 191.762C299.144 186.631 288.039 189.325 277.618 199.629C273.218 203.99 269.844 208.779 267.751 212.071C265.274 206.213 260.02 196.465 251.222 193.515C245.029 191.462 238.366 193.087 231.361 198.389C220.299 206.769 222.391 226.522 237.597 257.221C248.616 279.412 262.797 299.593 262.925 299.807L266.256 300.149C268.819 297.754 329.427 241.53 324.088 209.078C322.806 201.296 317.98 195.481 309.651 191.762ZM256.603 263.25L262.925 244.993C261.302 242.385 257.586 235.373 260.063 230.841C261.43 228.318 264.163 227.078 268.264 227.164C275.824 227.292 277.788 231.354 278.301 233.064C279.369 236.698 277.404 241.06 273.432 244.266L279.839 263.25L277.746 266.2H258.739L256.603 263.25Z" fill="white"/>
<path d="M116.509 325.375C118.517 325.375 120.567 325.247 122.532 324.947C128.597 324.092 134.064 320.543 137.139 315.455C140.257 310.367 140.727 304.082 138.548 297.797C136.968 293.222 134.064 289.973 129.963 288.134C121.25 284.243 110.273 288.305 107.113 289.631C100.749 292.324 92.5908 301.602 95.2816 313.018C97.3318 321.783 106.643 325.375 116.509 325.375ZM108.864 293.735C112.537 292.196 117.193 290.956 121.549 290.956C123.941 290.956 126.205 291.341 128.212 292.196C131.159 293.521 133.21 295.83 134.405 299.251C136.626 305.707 135.089 310.367 133.38 313.147C130.989 317.123 126.675 319.859 121.934 320.543C114.63 321.57 101.731 320.971 99.6382 311.992C97.5881 303.441 103.696 295.916 108.864 293.735Z" fill="white"/>
<path d="M305.185 5.64106L284.266 22.3079L287.032 25.7869L307.951 9.12011L305.185 5.64106Z" fill="white"/>
<path d="M332.039 25.9188L305.547 39.6052L307.584 43.5565L334.076 29.8701L332.039 25.9188Z" fill="white"/>
<path d="M98.6526 10.5955L95.3486 13.5676L115.704 36.2425L119.008 33.2704L98.6526 10.5955Z" fill="white"/>
<path d="M71.5485 43.7215L70.1084 47.928L96.2909 56.9103L97.731 52.7037L71.5485 43.7215Z" fill="white"/>
<path d="M171.009 248.899L140.248 261.922L141.978 266.017L172.74 252.994L171.009 248.899Z" fill="white"/>
<path d="M115.57 317.379L115.826 312.933C113.648 312.804 112.195 312.12 111.341 310.88C109.505 308.101 110.743 302.928 111.384 301.175L109.291 300.405L107.198 299.635C106.899 300.491 104.251 308.187 107.583 313.317C108.736 315.028 111.042 317.123 115.57 317.379Z" fill="white"/>
<path d="M308.754 178.251L308.455 182.697C316.528 183.21 321.867 186.93 326.821 195.482L330.665 193.258C324.942 183.381 318.407 178.892 308.754 178.251Z" fill="white"/>
</svg>
