<svg width="1065" height="856" viewBox="0 0 1065 856" fill="none" xmlns="http://www.w3.org/2000/svg">
<g clip-path="url(#clip0)">
<path d="M312.738 384.868C268.997 386.002 228.897 441.458 217.62 458.395C213.908 454.582 207.649 449.108 198.985 444.638C185.707 437.788 164.06 432.237 136.775 444.872C116.052 454.413 99.7983 466.835 85.6037 483.761C67.0385 505.856 52.5354 535.135 41.2864 573.256L41.1862 573.649C40.1337 579.366 39.2752 584.913 38.567 590.398C38.3228 591.292 38.0972 592.441 38.1158 593.753C34.6059 623.362 36.1297 649.812 42.5622 672.803C49.5954 697.654 62.1259 717.92 79.9471 732.897C95.1831 745.701 113.819 754.181 133.952 757.375C152.42 760.385 171.652 758.679 188.086 752.601C190.296 751.765 192.582 750.898 194.835 749.956C220.68 739.154 245.617 720.903 268.885 695.7C284.544 678.69 299.347 658.783 315.333 632.842C328.232 611.972 341.67 589.646 352.485 565.69C363.87 540.352 371.273 515.624 374.463 492.217C378.392 463.399 375.579 439.775 365.821 420.021C354.694 397.409 334.919 384.304 312.738 384.868ZM229.323 489.561L298.942 458.703C299.749 463.379 300.781 472.182 299.396 482.171C296.589 501.636 286.088 515.787 268.057 524.379C257.382 529.456 248.806 530.051 242.702 526.006C231.078 518.465 229.459 497.067 229.323 489.561ZM130.953 533.139L197.374 503.706C198.118 507.177 198.875 512.577 197.891 518.88C195.686 533.873 185.586 546.449 168.024 556.164C156.567 562.536 147.608 563.906 141.661 560.236C133.367 555.172 131.228 540.764 130.953 533.139ZM49.481 575.547C50.2013 573.047 50.9528 570.623 51.7357 568.273L119.058 538.463C120.791 543.455 123.119 553.035 119.205 562.674C114.959 573.419 104.39 581.706 87.6927 587.366C53.1713 599.157 47.2872 594.58 46.705 594.032C46.6737 593.957 46.6737 593.957 46.6425 593.883C47.3883 587.854 48.2844 581.764 49.481 575.547ZM130.599 650.957C132.476 657.559 133.076 664.696 133.394 671.159L65.0578 702.975C61.0082 696.665 57.5848 689.741 54.7749 682.385C66.9921 659.25 94.2393 645.047 116.402 641.061C124.196 639.65 128.196 642.463 130.599 650.957ZM209.57 635.714L146.924 664.888C144.809 659.616 141.699 649.219 145.438 638.95C148.857 629.606 157.341 622.454 170.557 617.546C184.224 612.449 194.485 612.294 201.052 617.024C207.894 621.992 209.295 631.256 209.57 635.714ZM277.261 604.255L219.405 631.163C217.572 626.565 213.998 615.483 217.788 604.489C220.925 595.526 228.245 588.334 239.733 583.092C250.351 578.302 258.853 577.739 265.088 581.465C273.67 586.584 276.442 598.705 277.261 604.255ZM338.122 576.09L338.029 575.866L286.69 599.786C284.205 594.053 280.244 582.253 283.827 571.61C286.307 564.241 292.03 558.507 300.983 554.589C310.956 550.157 319.458 549.593 326.231 552.919C336.779 558.096 340.095 571.308 340.083 571.49L340.414 571.439C339.65 572.989 338.886 574.54 338.122 576.09ZM345.167 561.273C342.476 555.89 337.757 549.244 330.07 545.422C320.936 540.885 310.031 541.397 297.578 546.866C286.327 551.832 279.027 559.281 275.764 569C274.762 571.881 274.229 574.83 274.028 577.728C272.695 576.438 271.136 575.243 269.49 574.26C260.77 569.022 249.545 569.405 236.253 575.4C222.542 581.659 213.614 590.491 209.768 601.772C208.591 605.079 208.033 608.39 207.776 611.575C207.225 611.102 206.674 610.629 206.08 610.262C197.085 603.732 184.188 603.494 167.604 609.634C151.952 615.473 141.74 624.402 137.431 636.053C136.717 637.934 136.185 639.828 135.909 641.702C130.576 632.322 121.843 631.487 114.938 632.702C88.4933 637.423 64.5515 652.355 51.3457 671.858C45.5138 651.782 43.5825 628.58 45.771 602.777C52.0562 604.723 64.2765 604.189 90.465 595.266C92.7063 594.505 94.8412 593.7 96.9448 592.821C112.421 586.352 122.615 577.167 127.211 565.572C128.057 563.371 128.721 561.159 129.128 558.966C131.156 562.34 133.797 565.281 137.228 567.365C144.47 571.813 153.78 571.704 164.824 567.088C167.228 566.083 169.644 564.897 172.224 563.467C197.148 549.62 204.519 532.204 206.387 519.991C207.671 511.451 206.42 504.235 205.394 500.09L221.121 493.165C221.771 503.799 224.798 524.344 238.206 532.986C246.307 538.219 256.586 538.32 268.832 533.201C269.809 532.793 270.861 532.353 271.881 531.839C295.153 520.793 303.995 502.674 307.127 487.998C309.217 493.632 312.297 498.677 316.697 502.026C323.038 506.851 330.97 507.669 340.386 504.437C345.47 502.664 349.89 500.992 353.646 499.422C358.905 497.224 362.837 495.229 365.911 493.504C362.44 515.183 355.538 537.943 345.167 561.273ZM367.052 482.298C365.593 483.876 359.514 488.967 337.432 496.525C330.783 498.777 325.7 498.439 321.681 495.37C311.428 487.519 310.392 463.504 310.838 453.38L361.412 431.01C366.926 445.678 368.783 462.579 367.052 482.298Z" fill="white"/>
<path d="M988.267 190.901C986.214 187.889 983.842 184.747 981.256 181.518C981.1 181.144 981.006 180.92 980.975 180.845L980.749 180.939C970.165 167.862 955.223 153.44 936.256 145.011C912.968 134.693 889.079 136.235 867.247 149.67C835.973 168.809 831.078 208.407 830.35 223.135C819.176 220.682 793.246 217.976 770.837 237.632C755.685 251.001 748.045 267.561 748.048 286.996C748.039 306.611 756 328.612 771.635 352.505C792.352 384.125 826.067 408.2 864.185 418.739C888.631 425.495 913.491 425.218 936.092 418.058C939.298 417.07 942.409 415.857 945.414 414.601C964.948 406.437 981.534 392.908 993.738 375.232C1014.59 344.882 1022.92 296.814 1014.99 252.725C1011.49 232.73 1001.74 210.247 988.267 190.901ZM950.539 163.137C958.896 169.406 966.652 176.982 973.618 185.415C974.081 188.211 974.024 196.942 960.731 209.269C944.289 224.408 919.438 205.07 911.326 197.908L950.539 163.137ZM903.205 205.084C909.596 210.239 920.269 220.993 920.436 231.74C920.542 238.116 916.878 244.132 909.428 249.533C900.975 255.704 892.83 257.965 885.174 256.328C874.575 253.986 867.083 244.718 863.872 239.992L903.205 205.084ZM854.737 248.119C860.677 253.463 874.248 267.139 873.777 279.736C873.569 285.363 870.507 290.073 864.384 294.215C857.228 299.053 850.072 300.725 842.885 299.156C831.029 296.548 821.927 285.754 818.134 280.479L854.737 248.119ZM778.39 347.131C773.709 339.942 769.847 333.026 766.668 326.264L810.778 287.16C815.309 291.246 824.329 300.58 824.847 311.532C825.159 318.613 821.84 325.453 814.797 331.827C791.799 352.608 780.569 348.332 778.39 347.131ZM864.255 409.828C856.393 407.486 848.674 404.644 841.294 401.133C840.9 396.812 841.346 385.633 853.542 375.962C865.783 366.185 884.355 379.792 890.121 384.506L864.255 409.828ZM897.86 377.05C893.54 375.162 880.845 368.859 878.693 358.854C877.304 352.575 880.454 345.542 888.099 337.861C895.938 330.012 903.432 326.615 910.431 327.736C921.111 329.428 928.515 341.02 930.762 344.917L897.86 377.05ZM941.644 334.213C937.394 332.911 926.533 328.041 924.656 320.383C923.279 314.978 926.36 308.414 933.736 300.934C941.306 293.284 948.618 289.876 955.555 290.847C964.081 292.032 970.397 299.33 973.251 303.413L941.644 334.213ZM1008.75 268.614L981.241 295.501C977.322 293.093 970.28 287.858 969.122 280.866C968.297 275.935 970.639 270.559 976.168 264.994C983.186 257.927 989.911 254.589 996.234 254.936C1002.19 255.259 1006.31 258.99 1007.85 260.548C1008.17 263.226 1008.5 265.904 1008.75 268.614ZM1005.67 248.794C1003.16 247.644 1000.23 246.758 996.886 246.572C987.99 245.981 979.087 250.23 970.19 259.138C962.62 266.787 959.42 274.544 960.771 282.422C960.852 282.828 960.902 283.159 960.984 283.565C959.588 283.181 958.192 282.797 956.708 282.625C946.986 281.324 937.25 285.482 927.683 295.109C918.817 304.091 914.903 312.675 916.073 320.541C914.721 320.05 913.249 319.698 911.841 319.495C901.918 317.926 891.926 322.103 882.046 332.036C872.285 341.833 868.402 351.547 870.422 360.816C870.792 362.332 871.236 363.817 871.906 365.208C864.199 363.241 855.785 363.592 848.372 369.504C836.445 378.975 833.394 389.836 832.936 396.975C814.307 386.821 797.969 373.07 785.344 356.801C785.526 356.813 785.676 356.75 785.858 356.762C789.451 356.491 793.308 355.583 797.365 353.887C804.577 350.873 812.347 345.602 820.599 338.108C829.628 329.937 833.867 320.866 833.412 311.118C833.318 308.783 832.893 306.498 832.317 304.276C835.103 305.662 838.051 306.805 841.25 307.49C848.043 308.961 854.835 308.32 861.522 305.525C864.151 304.426 866.731 302.996 869.335 301.204C877.719 295.501 882.077 288.403 882.366 280.016C882.599 274.026 880.64 268.073 877.661 262.635C879.47 263.373 881.429 264.049 883.37 264.47C890.087 265.971 897.03 265.268 903.942 262.379C907.473 260.903 910.966 258.915 914.542 256.278C924.265 249.136 929.074 240.793 928.988 231.507C928.932 226.518 927.399 221.794 925.071 217.491C937.403 223.769 948.408 224.973 957.724 221.079C960.88 219.76 963.86 217.811 966.546 215.369C975.08 207.493 979.138 200.521 980.948 194.927C992.89 212.097 1001.58 231.417 1005.67 248.794Z" fill="white"/>
<path d="M659.464 112.428C641.786 104.339 621.884 101.488 600.473 104.105C576.014 107.029 549.387 117.015 521.313 133.674C490.991 151.712 467.368 172.051 451.038 194.003C437.882 211.726 429.428 230.562 425.895 249.98C420.92 277.563 427.365 298.262 429.956 305.094L371.523 382.987L375.955 389.578L460.461 367.097C465.281 368.072 486.347 372.019 514.086 372.297C538.076 372.472 570.806 369.697 601.158 357.01C607.319 354.435 613.323 351.486 619.214 348.056C651.007 329.315 679.264 303.17 698.775 274.26C718.124 245.594 726.736 217.634 722.87 195.504C718.116 167.239 696.16 129.278 659.464 112.428ZM714.681 196.816C718.059 216.511 709.773 242.928 691.889 269.399C673.073 297.227 645.787 322.527 615.058 340.647C551.742 377.929 462.277 358.774 461.382 358.533L459.372 358.581L385.679 378.214L438.207 308.153L438.689 303.818C438.596 303.594 428.782 282.016 434.333 251.377C441.701 210.306 473.278 172.044 525.738 140.883C576.232 110.719 620.087 103.734 655.869 120.086C695.013 137.936 711.453 178.114 714.681 196.816Z" fill="white"/>
<path d="M671.582 436.186C667.933 430.412 658.594 418.837 640.515 413.378C612.782 405.094 576.928 414.54 533.946 441.563C491.729 468.091 452.325 516.132 468.513 571.543C472.994 586.907 481.293 599.796 492.423 608.687C506.626 620.076 526.252 625.856 547.669 624.732C563.151 623.977 578.908 620.293 594.31 613.855C602.649 610.37 610.901 606.041 618.946 601.008C638.211 588.822 665.009 568.475 683.042 540.886C684.758 538.235 686.367 535.539 687.826 532.907C698.697 512.885 701.749 491.47 696.43 473.466C716.454 455.071 736.552 436.645 756.575 418.25L763.544 411.908L759.257 404.817L671.582 436.186ZM688.587 469.269L687.472 473.781C693.204 490.029 690.603 510.2 680.321 529.096C678.949 531.516 677.534 534.042 675.906 536.482C658.655 562.776 632.935 582.321 614.359 594.043C592.846 607.608 569.619 615.381 547.219 616.477C527.931 617.415 510.296 612.386 497.682 602.268C487.867 594.41 480.557 583.043 476.583 569.313C461.759 518.433 498.777 473.763 538.403 448.846C551.106 440.81 563.334 434.381 574.828 429.576C599.471 419.276 620.819 416.509 637.803 421.459C658.323 427.481 665.489 442.514 665.74 443.113L670.986 445.318L742.239 419.845C724.426 436.349 706.506 452.809 688.587 469.269Z" fill="white"/>
<path d="M210.956 432.951L218.825 432.564C225.683 413.076 233.09 405.671 239.433 400.998L234.469 394.19C225.478 400.762 218.866 409.858 213.342 423.247C203.99 416.075 187.138 411.862 183.15 410.979L181.196 419.183C191.751 421.631 208.509 427.73 210.956 432.951Z" fill="white"/>
<path d="M46.3361 717.308L38.0659 719.269C38.3724 720.636 46.4814 753.128 79.0214 763.624L81.6582 755.575C53.7193 746.585 46.4613 717.607 46.3361 717.308Z" fill="white"/>
<path d="M822.584 205.187C822.466 204.269 822.391 203.245 822.241 202.252C821.196 193.63 819.896 182.917 823.847 178.012L817.243 172.769C811.376 180.058 812.382 191.334 813.601 201.642C802.47 202.249 787.113 204.358 786.374 204.491L787.581 212.869C787.763 212.881 808.097 210.011 818.389 209.93L822.584 205.187Z" fill="white"/>
<path d="M1035.98 296.808C1036.07 297.032 1042.98 318.854 1034.64 333.949L1042.09 338.047C1052.19 319.757 1044.43 295.295 1044.07 294.216L1035.98 296.808Z" fill="white"/>
<path d="M399.965 307.62L368.3 355.328L375.353 359.977L407.018 312.269L399.965 307.62Z" fill="white"/>
<path d="M678.932 412.202L681.795 420.14L729.51 402.913L726.647 394.974L678.932 412.202Z" fill="white"/>
<path d="M528.741 287.637L497.887 263.861L491.288 268.554L503.178 302.28L468.499 275.265L463.334 281.909L509.399 317.796L515.967 313.028L504.045 279.228L533.86 302.207L540.522 297.664L523.383 239.133L515.301 241.544L528.741 287.637Z" fill="white"/>
<path d="M557.198 216.997C553.992 216.93 551.056 217.717 548.389 219.36C539.611 224.963 537.988 238.394 538.45 245.412C538.987 253.454 541.797 261.866 546.36 269.193C550.766 276.145 558.872 283.926 568.375 284.703C570.767 284.935 573.772 284.734 576.927 283.415C579.407 282.379 582.042 280.662 584.647 277.814C592.655 269.102 593.985 255.179 588.108 241.542C581.975 226.868 569.762 217.286 557.198 216.997ZM578.444 272.052C575.601 275.175 572.552 276.537 569.178 276.277C563.957 275.821 557.816 271.264 553.641 264.654C549.792 258.612 547.47 251.579 546.983 244.923C546.539 238.161 548.531 229.414 553.039 226.474C554.223 225.716 555.487 225.363 557.015 225.428C567.539 225.691 576.352 235.374 580.37 244.776C583.918 253.055 585.275 264.536 578.444 272.052Z" fill="white"/>
<path d="M635.841 217.018L615.954 202.376L609.205 206.077L611.167 232.519L584.708 205.323L578.61 211.214L613.168 246.809L620.437 243.507L618.35 214.655L640.178 230.771L646.796 226.334L634.026 173.189L625.787 175.225L635.841 217.018Z" fill="white"/>
<path d="M643.982 148.768L636.193 152.094L659.304 206.194L667.092 202.868L643.982 148.768Z" fill="white"/>
<path d="M667.721 211.045L661.509 216.795L667.534 223.275L673.747 217.525L667.721 211.045Z" fill="white"/>
<path d="M527.681 575.219C519.993 572.451 513.272 557.848 515.658 549.199C516.335 546.806 517.681 543.693 519.922 542.932C522.946 541.932 527.366 544.482 528.755 545.484L533.89 538.765C532.988 538.086 525.107 532.322 517.3 534.97C512.667 536.554 509.324 540.59 507.57 546.952C503.9 559.918 512.981 578.9 524.831 583.181C527.11 583.988 531.173 584.84 535.831 582.893C540.413 580.978 545.548 576.369 550.075 566.298L542.363 562.838C539.182 569.796 534.122 577.539 527.681 575.219Z" fill="white"/>
<path d="M568.638 509.994C561.526 508.394 553.688 510.966 548.673 516.492C547.051 518.313 545.78 520.34 544.934 522.54C542.367 529.066 543.524 537.113 548.406 545.625C554.84 557.007 565.432 561.023 576.401 556.438C577.152 556.124 577.978 555.779 578.698 555.39C585.059 552.028 589.505 545.772 590.226 539.051C590.74 534.791 589.751 530.103 587.467 525.693C583.499 517.678 576.219 511.662 568.638 509.994ZM581.868 538.059C581.38 541.957 578.668 545.816 574.768 547.886C574.198 548.213 573.672 548.432 573.146 548.652C563.83 552.546 558.266 545.989 555.768 541.493C553.302 537.071 550.78 530.826 552.778 525.681C553.304 524.406 553.968 523.249 554.951 522.223C556.216 520.815 557.862 519.687 559.515 518.996C561.844 518.022 564.38 517.754 566.715 518.273C571.886 519.454 576.981 523.832 579.904 529.558C581.005 531.56 582.244 534.736 581.868 538.059Z" fill="white"/>
<path d="M609.723 481.389C601.904 481.052 595.606 484.564 591.905 491.123C588.041 497.927 587.783 507.445 591.175 515.349C594.755 523.702 602.567 529.935 611.231 531.239C615.563 531.891 619.714 531.475 623.245 529.999C627.603 528.178 631.197 524.741 633.457 520.014C638.404 509.68 635.808 496.078 627.358 488.529C622.444 484.163 616.165 481.599 609.723 481.389ZM625.682 516.404C623.935 520.037 620.26 524.123 612.428 522.911C606.656 521.982 601.367 517.773 598.882 512.04C596.492 506.531 596.668 499.774 599.204 495.284C600.412 493.108 602.084 491.618 604.113 490.77C605.615 490.142 607.349 489.857 609.24 489.946C613.716 490.098 618.111 491.954 621.447 494.869C627.844 500.462 628.588 510.265 625.682 516.404Z" fill="white"/>
<path d="M628.061 445.617L620.814 449.997L655.626 507.463L662.873 503.084L628.061 445.617Z" fill="white"/>
</g>
<defs>
<clipPath id="clip0">
<rect width="1065" height="856" fill="white"/>
</clipPath>
</defs>
</svg>
